<?xml version="1.0" standalone="no"?>
<!DOCTYPE svg PUBLIC "-//W3C//DTD SVG 20010904//EN"
 "http://www.w3.org/TR/2001/REC-SVG-20010904/DTD/svg10.dtd">
<svg version="1.0" xmlns="http://www.w3.org/2000/svg"
 width="1800.000000pt" height="730.000000pt" viewBox="0 0 1800.000000 730.000000"
 preserveAspectRatio="xMidYMid meet">
<metadata>
Created by potrace 1.16, written by Peter Selinger 2001-2019
</metadata>
<g transform="translate(0.000000,730.000000) scale(0.100000,-0.100000)"
fill="#000000" stroke="none">
<path d="M179 7253 c-64 -164 -139 -365 -139 -374 0 -6 12 -9 27 -7 22 2 29
11 43 53 l17 50 93 0 93 0 17 -50 c14 -42 21 -51 45 -53 35 -4 36 -11 -53 223
-68 177 -70 180 -101 183 -26 3 -33 -1 -42 -25z"/>
<path d="M6050 7080 l0 -200 30 0 30 0 2 160 3 159 85 -159 85 -160 38 0 37 0
0 200 0 200 -25 0 -25 0 -2 -166 -3 -166 -88 166 -89 166 -39 0 -39 0 0 -200z"/>
<path d="M12101 7229 c-40 -40 -54 -96 -49 -200 6 -126 45 -179 134 -179 92 0
138 70 137 210 0 139 -43 200 -139 200 -45 0 -57 -4 -83 -31z m143 -42 c26
-36 35 -170 14 -232 -24 -74 -101 -86 -135 -22 -24 45 -24 199 0 244 19 36 31
43 71 40 19 -1 36 -12 50 -30z"/>
<path d="M730 7183 c-23 -9 -60 -45 -76 -75 -31 -60 -6 -139 58 -178 40 -24
88 -26 134 -4 96 46 99 200 5 249 -29 15 -91 19 -121 8z"/>
<path d="M1210 7050 l0 -140 425 0 425 0 0 140 0 140 -425 0 -425 0 0 -140z"/>
<path d="M6620 7045 l0 -145 425 0 425 0 0 145 0 145 -425 0 -425 0 0 -145z"/>
<path d="M7857 7175 c-66 -23 -97 -65 -97 -132 0 -139 179 -191 257 -74 73
108 -37 250 -160 206z"/>
<path d="M12552 7008 l3 -143 425 0 425 0 3 143 3 142 -431 0 -431 0 3 -142z"/>
<path d="M13692 7008 l3 -143 423 -3 422 -2 0 145 0 145 -425 0 -426 0 3 -142z"/>
<path d="M14830 7005 l0 -145 425 0 425 0 0 145 0 145 -425 0 -425 0 0 -145z"/>
<path d="M15970 7005 l0 -145 425 0 425 0 0 145 0 145 -425 0 -425 0 0 -145z"/>
<path d="M17102 7008 l3 -143 425 0 425 0 3 143 3 142 -431 0 -431 0 3 -142z"/>
<path d="M80 6511 l0 -201 111 0 111 0 34 34 c28 28 34 42 34 76 0 35 -6 48
-33 74 l-34 32 24 18 c21 15 24 25 21 68 -5 77 -30 92 -164 96 l-104 4 0 -201z
m193 143 c20 -7 31 -38 23 -69 -7 -27 -54 -45 -118 -45 l-38 0 0 66 0 67 58
-6 c32 -4 66 -9 75 -13z m15 -170 c17 -12 22 -25 22 -59 0 -59 -23 -75 -107
-75 l-63 0 0 75 0 75 63 0 c40 0 70 -5 85 -16z"/>
<path d="M6104 6692 c-132 -83 -117 -337 22 -382 54 -18 144 -9 183 20 101 71
100 280 -1 352 -46 32 -159 38 -204 10z m156 -38 c46 -28 65 -70 65 -149 0
-104 -46 -165 -125 -165 -103 0 -162 130 -113 251 28 71 109 100 173 63z"/>
<path d="M12155 6695 c-5 -2 -22 -6 -37 -9 -22 -5 -28 -12 -28 -32 0 -19 4
-24 18 -20 9 2 32 7 50 11 l32 7 0 -156 0 -156 -45 0 c-41 0 -45 -2 -45 -25
l0 -25 115 0 115 0 0 25 c0 23 -4 25 -45 25 l-45 0 0 180 0 180 -37 -1 c-21 0
-42 -2 -48 -4z"/>
<path d="M640 6480 l0 -140 425 0 425 0 0 140 0 140 -425 0 -425 0 0 -140z"/>
<path d="M1853 6601 c-89 -56 -83 -200 10 -244 149 -71 276 114 157 228 -40
38 -120 46 -167 16z"/>
<path d="M2983 6601 c-89 -56 -82 -201 11 -245 85 -40 185 9 202 100 9 48 -2
79 -40 121 -28 31 -40 37 -87 40 -42 3 -61 0 -86 -16z"/>
<path d="M6620 6475 l0 -145 425 0 425 0 0 145 0 145 -425 0 -425 0 0 -145z"/>
<path d="M7760 6475 l0 -145 425 0 425 0 0 145 0 145 -425 0 -425 0 0 -145z"/>
<path d="M8900 6475 l0 -145 425 0 425 0 0 145 0 145 -425 0 -425 0 0 -145z"/>
<path d="M2413 6590 c-121 -73 -51 -276 89 -257 102 14 155 111 111 204 -33
69 -131 96 -200 53z"/>
<path d="M12630 6562 c-23 -12 -43 -35 -58 -64 -31 -62 -23 -109 28 -160 35
-35 42 -38 93 -38 48 0 61 4 91 30 128 113 -4 310 -154 232z"/>
<path d="M13120 6440 l0 -140 430 0 430 0 0 140 0 140 -430 0 -430 0 0 -140z"/>
<path d="M14260 6435 l0 -145 428 2 427 3 3 143 3 142 -431 0 -430 0 0 -145z"/>
<path d="M15400 6440 l0 -140 425 0 425 0 0 140 0 140 -425 0 -425 0 0 -140z"/>
<path d="M16540 6440 l0 -140 425 0 425 0 0 140 0 140 -425 0 -425 0 0 -140z"/>
<path d="M142 6133 c-133 -65 -132 -313 1 -377 46 -21 146 -21 192 1 27 13 35
23 35 43 l0 27 -47 -23 c-53 -28 -99 -30 -149 -9 -98 41 -98 259 0 300 50 21
96 19 149 -9 l47 -23 0 27 c0 20 -8 30 -35 43 -46 22 -149 22 -193 0z"/>
<path d="M6050 5940 l0 -200 30 0 30 0 0 80 0 80 56 0 c100 0 147 38 147 120
0 90 -45 120 -177 120 l-86 0 0 -200z m179 141 c24 -13 35 -59 22 -94 -10 -27
-58 -47 -113 -47 l-28 0 0 81 0 82 50 -6 c27 -3 58 -11 69 -16z"/>
<path d="M12078 6118 c-21 -7 -28 -16 -28 -35 0 -20 4 -24 18 -20 109 36 144
33 171 -14 23 -42 6 -74 -94 -180 -67 -71 -95 -108 -95 -125 l0 -25 128 3
c123 3 127 4 130 26 3 22 1 22 -94 22 l-97 0 86 89 c94 97 112 135 96 197 -14
50 -58 74 -134 73 -33 0 -72 -5 -87 -11z"/>
<path d="M640 5910 l0 -140 425 0 425 0 0 140 0 140 -425 0 -425 0 0 -140z"/>
<path d="M1843 6030 c-121 -73 -51 -276 89 -257 102 14 155 111 111 204 -33
69 -131 96 -200 53z"/>
<path d="M2350 5910 l0 -140 425 0 425 0 0 140 0 140 -425 0 -425 0 0 -140z"/>
<path d="M3553 6030 c-42 -25 -63 -68 -63 -126 0 -40 5 -51 38 -85 43 -42 76
-54 126 -45 92 17 140 117 99 203 -33 69 -131 96 -200 53z"/>
<path d="M6701 6032 c-47 -23 -72 -61 -78 -113 -8 -84 56 -152 142 -152 84 0
139 63 132 151 -4 59 -30 95 -84 118 -43 19 -71 18 -112 -4z"/>
<path d="M7190 5905 l0 -145 425 0 425 0 0 145 0 145 -425 0 -425 0 0 -145z"/>
<path d="M8330 5905 l0 -145 425 0 425 0 0 145 0 145 -425 0 -425 0 0 -145z"/>
<path d="M9545 6031 c-129 -66 -86 -264 58 -264 57 0 103 28 127 78 24 50 25
76 4 121 -34 72 -118 100 -189 65z"/>
<path d="M12634 5996 c-70 -31 -102 -137 -60 -200 42 -65 134 -85 197 -43 145
97 23 313 -137 243z"/>
<path d="M13201 5993 c-99 -52 -105 -178 -12 -240 62 -42 155 -22 196 41 36
54 14 157 -40 192 -38 25 -104 28 -144 7z"/>
<path d="M13690 5870 l0 -140 425 0 425 0 0 140 0 140 -425 0 -425 0 0 -140z"/>
<path d="M14830 5870 l0 -140 425 0 425 0 0 140 0 140 -425 0 -425 0 0 -140z"/>
<path d="M15970 5870 l0 -140 425 0 425 0 0 140 0 140 -425 0 -425 0 0 -140z"/>
<path d="M60 5381 l0 -201 103 0 c87 0 110 3 147 23 68 35 84 64 88 162 4 72
1 89 -18 123 -36 64 -85 85 -212 90 l-108 5 0 -202z m225 130 c41 -23 59 -65
60 -138 0 -47 -5 -68 -21 -90 -30 -42 -80 -63 -146 -63 l-58 0 0 161 0 161 68
-7 c37 -4 81 -14 97 -24z"/>
<path d="M6104 5552 c-72 -46 -108 -147 -86 -243 22 -92 84 -149 164 -149 23
0 42 -10 69 -36 28 -27 43 -35 65 -32 l28 3 -34 38 c-35 40 -35 40 12 67 9 5
26 31 39 57 47 97 22 231 -53 285 -46 32 -159 38 -204 10z m156 -38 c46 -28
65 -70 65 -149 0 -104 -46 -165 -125 -165 -103 0 -162 130 -113 251 28 71 109
100 173 63z"/>
<path d="M12078 5549 c-10 -5 -18 -19 -18 -30 0 -18 4 -20 33 -12 49 12 122
10 141 -6 9 -7 16 -28 16 -47 0 -42 -30 -64 -87 -64 -35 0 -43 -3 -43 -19 0
-15 10 -20 48 -26 70 -10 92 -28 92 -74 0 -55 -27 -76 -99 -76 -31 0 -68 4
-83 9 -26 7 -28 6 -28 -17 0 -22 6 -27 38 -34 113 -23 202 8 223 77 17 57 -6
117 -51 132 -8 2 -1 15 19 35 43 43 42 84 -3 129 -33 33 -37 34 -107 34 -41 0
-82 -5 -91 -11z"/>
<path d="M640 5345 l0 -145 425 0 425 0 0 145 0 145 -425 0 -425 0 0 -145z"/>
<path d="M1880 5479 c-21 -4 -48 -22 -67 -43 -28 -31 -33 -43 -33 -87 0 -66
23 -104 78 -130 72 -36 151 -8 186 65 21 45 20 78 -4 126 -29 57 -90 84 -160
69z"/>
<path d="M2425 5464 c-97 -48 -100 -200 -6 -249 93 -48 199 10 208 114 9 108
-104 183 -202 135z"/>
<path d="M6620 5335 l0 -145 425 0 425 0 0 145 0 145 -425 0 -425 0 0 -145z"/>
<path d="M7760 5335 l0 -145 425 0 425 0 0 145 0 145 -425 0 -425 0 0 -145z"/>
<path d="M8972 5462 c-46 -25 -72 -68 -72 -120 0 -85 54 -142 135 -142 59 0
97 22 125 73 67 119 -67 253 -188 189z"/>
<path d="M9462 5338 l3 -143 425 0 425 0 3 143 3 142 -431 0 -431 0 3 -142z"/>
<path d="M12640 5434 c-29 -12 -70 -58 -81 -91 -29 -90 40 -183 136 -183 130
0 190 154 95 245 -23 22 -40 29 -82 31 -29 2 -60 1 -68 -2z"/>
<path d="M13210 5433 c-24 -9 -61 -46 -76 -75 -44 -85 26 -198 122 -198 139 0
203 151 104 245 -23 22 -40 29 -82 31 -29 2 -60 1 -68 -3z"/>
<path d="M13739 5402 c-34 -31 -42 -46 -46 -84 -10 -87 52 -158 139 -158 83 0
142 58 142 140 0 84 -59 140 -147 140 -42 0 -53 -5 -88 -38z"/>
<path d="M14260 5300 l0 -140 430 0 430 0 0 140 0 140 -430 0 -430 0 0 -140z"/>
<path d="M15400 5300 l0 -140 425 0 425 0 0 140 0 140 -425 0 -425 0 0 -140z"/>
<path d="M72 4808 l3 -203 130 0 c127 0 130 0 133 23 3 22 2 22 -102 22 l-106
0 0 75 0 75 95 0 c95 0 95 0 95 25 0 25 0 25 -95 25 l-95 0 0 55 0 55 100 0
100 0 0 25 0 25 -130 0 -130 0 2 -202z"/>
<path d="M6030 4800 l0 -200 30 0 30 0 0 80 0 80 50 0 c60 0 76 -14 120 -100
26 -52 34 -60 59 -60 l29 0 -36 68 c-19 37 -46 79 -59 94 -24 25 -24 26 -6 32
28 9 47 51 46 96 -4 84 -45 110 -178 110 l-85 0 0 -200z m193 129 c24 -30 21
-66 -8 -94 -19 -20 -34 -25 -75 -25 l-50 0 0 76 0 77 58 -7 c40 -4 62 -12 75
-27z"/>
<path d="M12123 4864 c-56 -85 -83 -136 -83 -155 l0 -29 90 0 90 0 0 -50 c0
-47 2 -50 25 -50 23 0 25 3 25 50 0 49 1 50 30 50 25 0 30 4 30 25 0 21 -5 25
-30 25 l-30 0 0 130 0 130 -32 0 c-31 0 -38 -8 -115 -126z"/>
<path d="M723 4901 c-47 -22 -71 -53 -80 -104 -16 -102 83 -190 179 -158 57
19 91 62 95 123 9 114 -92 186 -194 139z"/>
<path d="M6700 4892 c-74 -37 -99 -120 -59 -192 26 -47 66 -70 119 -70 83 0
140 56 140 138 0 56 -25 99 -72 123 -46 24 -83 24 -128 1z"/>
<path d="M7190 4770 l0 -140 425 0 425 0 0 140 0 140 -425 0 -425 0 0 -140z"/>
<path d="M8405 4894 c-97 -48 -100 -200 -6 -249 93 -48 199 10 208 114 9 108
-104 183 -202 135z"/>
<path d="M12623 4850 c-46 -28 -67 -65 -67 -119 0 -138 183 -193 258 -79 80
122 -66 274 -191 198z"/>
<path d="M13204 4860 c-31 -12 -72 -66 -80 -105 -12 -67 37 -145 102 -161 33
-9 91 1 120 21 53 34 74 138 39 191 -35 54 -119 79 -181 54z"/>
<path d="M13780 4863 c-8 -3 -27 -17 -42 -31 -119 -110 12 -295 159 -225 96
45 98 199 4 248 -29 15 -91 19 -121 8z"/>
<path d="M14350 4863 c-23 -9 -60 -45 -76 -75 -31 -60 -6 -139 58 -178 40 -24
88 -26 134 -4 96 46 99 200 5 249 -29 15 -91 19 -121 8z"/>
<path d="M14830 4730 l0 -140 425 0 425 0 0 140 0 140 -425 0 -425 0 0 -140z"/>
<path d="M90 4240 l0 -200 30 0 30 0 0 95 0 95 80 0 c79 0 80 0 80 25 0 25 -1
25 -80 25 l-80 0 0 55 0 54 88 3 c82 3 87 4 90 26 3 22 2 22 -117 22 l-121 0
0 -200z"/>
<path d="M6084 4396 c-28 -28 -34 -42 -34 -76 0 -59 35 -91 125 -114 38 -10
75 -22 82 -28 14 -11 17 -66 5 -84 -23 -35 -93 -43 -162 -19 -53 19 -50 19
-50 -9 0 -31 41 -46 127 -46 102 0 153 38 153 115 0 70 -37 102 -140 124 -89
19 -113 58 -65 106 28 29 80 33 144 10 41 -14 41 -14 41 11 0 32 -32 44 -122
44 -66 0 -72 -2 -104 -34z"/>
<path d="M12060 4320 l0 -100 26 10 c102 39 193 -35 153 -123 -17 -37 -50 -50
-111 -45 -29 3 -61 9 -71 13 -16 7 -18 4 -15 -21 3 -32 25 -41 101 -43 98 -2
157 47 157 131 0 92 -48 140 -142 140 l-48 0 0 44 0 43 83 3 c76 3 82 5 85 26
3 22 2 22 -107 22 l-111 0 0 -100z"/>
<path d="M721 4332 c-72 -36 -100 -123 -63 -192 25 -47 94 -83 142 -75 80 14
123 71 117 153 -4 59 -30 95 -84 118 -43 19 -71 18 -112 -4z"/>
<path d="M1290 4333 c-133 -69 -88 -267 61 -267 176 0 187 259 12 280 -25 3
-50 -1 -73 -13z"/>
<path d="M1780 4205 l0 -145 425 0 425 0 0 145 0 145 -425 0 -425 0 0 -145z"/>
<path d="M3005 4336 c-17 -7 -43 -28 -58 -45 -22 -27 -27 -42 -27 -86 0 -46 5
-59 31 -90 102 -116 284 -13 240 136 -22 72 -118 116 -186 85z"/>
<path d="M6692 4320 c-118 -72 -80 -244 56 -258 89 -8 152 49 152 137 0 109
-116 177 -208 121z"/>
<path d="M7274 4330 c-27 -11 -72 -65 -80 -96 -22 -88 45 -174 136 -174 80 0
140 58 140 136 0 102 -103 172 -196 134z"/>
<path d="M7835 4325 c-93 -49 -99 -190 -10 -245 69 -43 166 -15 200 57 43 89
-15 192 -112 200 -31 2 -58 -2 -78 -12z"/>
<path d="M12640 4294 c-8 -4 -27 -18 -43 -32 -80 -75 -39 -218 70 -238 140
-26 226 142 123 241 -23 22 -40 29 -82 31 -29 2 -60 1 -68 -2z"/>
<path d="M13204 4291 c-11 -5 -32 -23 -47 -40 -92 -110 14 -264 153 -222 98
29 126 163 50 236 -23 22 -40 29 -82 32 -29 1 -62 -1 -74 -6z"/>
<path d="M13746 4270 c-82 -72 -66 -196 30 -236 96 -40 194 23 194 125 0 85
-56 141 -142 141 -38 0 -54 -6 -82 -30z"/>
<path d="M14323 4279 c-42 -27 -67 -81 -60 -131 10 -71 54 -116 126 -125 47
-6 109 24 134 67 21 35 22 102 2 141 -35 66 -136 90 -202 48z"/>
<path d="M14895 4280 c-88 -58 -84 -184 7 -240 86 -52 196 6 206 108 5 59 -15
105 -61 132 -42 26 -113 26 -152 0z"/>
<path d="M132 3863 c-133 -65 -132 -313 1 -377 45 -21 154 -21 207 0 l40 16 0
89 0 89 -70 0 c-63 0 -70 -2 -70 -20 0 -17 7 -20 45 -20 l45 0 0 -55 c0 -50
-2 -56 -26 -65 -14 -6 -43 -10 -66 -10 -100 0 -155 69 -146 185 6 73 26 107
75 130 42 20 113 17 163 -8 42 -21 40 -22 40 9 0 19 -8 28 -35 40 -47 19 -161
18 -203 -3z"/>
<path d="M6030 3835 c0 -24 2 -25 70 -25 l70 0 0 -175 0 -175 30 0 30 0 0 175
0 175 70 0 c68 0 70 1 70 25 l0 25 -170 0 -170 0 0 -25z"/>
<path d="M12130 3827 c-51 -34 -72 -79 -78 -161 -6 -92 11 -151 54 -194 33
-33 37 -34 96 -30 53 4 65 9 89 36 103 115 -27 292 -156 212 l-33 -20 8 35
c19 82 64 113 143 98 45 -9 47 -8 47 13 0 27 -17 34 -84 34 -38 0 -62 -6 -86
-23z m123 -189 c10 -12 17 -37 17 -65 0 -115 -139 -126 -156 -12 -12 87 85
141 139 77z"/>
<path d="M640 3635 l0 -145 425 0 425 0 0 145 0 145 -425 0 -425 0 0 -145z"/>
<path d="M1780 3635 l0 -145 425 0 425 0 0 145 0 145 -425 0 -425 0 0 -145z"/>
<path d="M3005 3766 c-52 -23 -85 -71 -85 -122 0 -86 55 -146 135 -146 178 0
195 258 18 278 -21 2 -52 -2 -68 -10z"/>
<path d="M6620 3630 l0 -140 425 0 425 0 0 140 0 140 -425 0 -425 0 0 -140z"/>
<path d="M12557 3733 c-4 -3 -7 -69 -7 -145 l0 -138 430 0 431 0 -3 143 -3
142 -421 3 c-231 1 -424 -1 -427 -5z"/>
<path d="M13758 3713 c-14 -9 -36 -34 -48 -56 -68 -120 67 -255 187 -187 52
29 73 66 73 128 0 55 -22 92 -70 117 -38 20 -108 19 -142 -2z"/>
<path d="M14324 3711 c-34 -21 -64 -75 -64 -115 0 -67 51 -130 116 -142 50 -9
83 3 126 45 33 34 38 45 38 85 0 58 -21 101 -63 126 -41 26 -112 26 -153 1z"/>
<path d="M14894 3711 c-60 -36 -81 -127 -44 -188 56 -92 177 -94 237 -4 43 63
24 153 -40 191 -41 26 -112 26 -153 1z"/>
<path d="M15463 3710 c-62 -37 -82 -124 -43 -187 56 -92 177 -94 237 -4 41 61
22 154 -39 191 -43 26 -113 26 -155 0z"/>
<path d="M70 3100 l0 -200 30 0 30 0 0 95 0 95 100 0 100 0 0 -95 c0 -95 0
-95 25 -95 l25 0 0 200 0 200 -25 0 c-25 0 -25 -1 -25 -80 l0 -80 -100 0 -100
0 0 80 0 80 -30 0 -30 0 0 -200z"/>
<path d="M6030 3149 c0 -179 10 -211 74 -240 78 -35 165 -17 210 44 19 25 21
45 24 188 l4 159 -31 0 -31 0 0 -154 c0 -147 -1 -156 -23 -181 -18 -22 -31
-27 -70 -27 -40 -1 -53 4 -75 26 -27 26 -27 29 -30 181 l-4 155 -24 0 -24 0 0
-151z"/>
<path d="M12050 3265 c0 -24 2 -24 93 -27 l93 -3 -67 -173 -67 -173 30 3 c29
3 32 9 104 193 40 105 74 193 74 198 0 4 -58 7 -130 7 l-130 0 0 -25z"/>
<path d="M721 3192 c-74 -37 -100 -120 -61 -189 27 -50 66 -73 120 -73 83 0
140 56 140 138 0 56 -25 99 -72 123 -46 24 -83 24 -127 1z"/>
<path d="M1290 3192 c-133 -66 -87 -262 61 -262 151 0 193 195 57 266 -36 19
-76 18 -118 -4z"/>
<path d="M1855 3191 c-49 -30 -68 -58 -73 -109 -8 -89 49 -152 137 -152 144 0
193 184 69 260 -41 25 -94 25 -133 1z"/>
<path d="M2424 3191 c-51 -31 -74 -68 -74 -120 0 -85 56 -141 141 -141 109 0
176 121 116 211 -42 64 -124 86 -183 50z"/>
<path d="M6653 3180 c-46 -28 -67 -65 -67 -119 0 -110 118 -178 211 -121 46
28 67 65 67 120 0 80 -59 140 -139 140 -22 0 -54 -9 -72 -20z"/>
<path d="M7219 3177 c-118 -78 -65 -257 76 -257 79 0 139 64 137 147 -1 107
-124 170 -213 110z"/>
<path d="M7720 3060 l0 -140 425 0 425 0 0 140 0 140 -425 0 -425 0 0 -140z"/>
<path d="M12557 3163 c-4 -3 -7 -69 -7 -145 l0 -138 430 0 431 0 -3 143 -3
142 -421 3 c-231 1 -424 -1 -427 -5z"/>
<path d="M13690 3025 l0 -145 425 0 425 0 0 145 0 145 -425 0 -425 0 0 -145z"/>
<path d="M14927 3155 c-48 -17 -67 -33 -84 -72 -38 -92 16 -187 114 -199 76
-10 153 60 153 138 0 99 -91 165 -183 133z"/>
<path d="M15497 3155 c-66 -23 -97 -65 -97 -132 0 -139 179 -191 257 -74 73
108 -37 250 -160 206z"/>
<path d="M16080 3162 c-69 -12 -115 -78 -108 -154 11 -112 141 -165 227 -92
72 60 63 187 -17 227 -35 18 -71 25 -102 19z"/>
<path d="M190 2530 l0 -200 30 0 30 0 0 200 0 200 -30 0 -30 0 0 -200z"/>
<path d="M6010 2723 c0 -8 21 -66 106 -285 43 -112 47 -118 74 -118 27 0 31 6
66 98 20 53 55 142 76 196 21 55 38 104 38 109 0 4 -12 7 -27 5 -24 -3 -31
-15 -87 -165 -34 -90 -63 -163 -66 -163 -3 0 -32 73 -66 163 -56 149 -63 162
-88 165 -14 2 -26 0 -26 -5z"/>
<path d="M12114 2700 c-53 -21 -72 -107 -34 -148 12 -12 25 -22 31 -22 6 0 -6
-15 -25 -34 -31 -29 -36 -40 -36 -80 0 -36 6 -52 29 -78 24 -28 36 -32 90 -36
105 -8 153 29 153 116 0 40 -5 51 -33 76 -29 26 -30 29 -15 38 25 14 45 67 39
101 -3 15 -19 38 -35 52 -24 20 -40 25 -86 24 -31 0 -67 -4 -78 -9z m124 -46
c28 -19 29 -67 2 -94 -43 -43 -130 -13 -130 45 0 55 77 85 128 49z m15 -185
c41 -50 1 -129 -65 -129 -65 0 -102 53 -78 111 21 51 106 61 143 18z"/>
<path d="M712 2620 c-118 -72 -80 -244 56 -258 89 -8 152 49 152 137 0 109
-116 177 -208 121z"/>
<path d="M1282 2620 c-66 -40 -89 -116 -56 -186 46 -97 200 -99 250 -3 20 41
15 116 -12 152 -41 56 -123 73 -182 37z"/>
<path d="M6670 2624 c-8 -4 -27 -18 -43 -32 -80 -75 -39 -218 70 -238 140 -26
226 142 123 241 -23 22 -40 29 -82 31 -29 2 -60 1 -68 -2z"/>
<path d="M7234 2620 c-31 -12 -72 -66 -80 -105 -13 -72 39 -147 112 -161 160
-30 236 187 92 262 -30 15 -91 18 -124 4z"/>
<path d="M7804 2620 c-11 -4 -32 -22 -47 -39 -99 -118 30 -281 170 -214 96 45
98 199 4 248 -32 16 -93 19 -127 5z"/>
<path d="M8290 2490 l0 -140 425 0 425 0 0 140 0 140 -425 0 -425 0 0 -140z"/>
<path d="M12554 2587 c-2 -7 -3 -71 -2 -143 l3 -129 425 0 425 0 0 140 0 140
-423 3 c-342 2 -424 0 -428 -11z"/>
<path d="M13690 2455 l0 -145 425 0 425 0 0 145 0 145 -425 0 -425 0 0 -145z"/>
<path d="M14830 2455 l0 -145 425 0 425 0 0 145 0 145 -425 0 -425 0 0 -145z"/>
<path d="M16066 2590 c-130 -40 -127 -233 5 -270 108 -31 203 70 170 181 -20
68 -105 111 -175 89z"/>
<path d="M16634 2589 c-18 -5 -46 -25 -63 -44 -27 -31 -31 -44 -31 -90 0 -46
4 -59 31 -90 69 -78 189 -64 233 29 41 87 -11 185 -104 200 -19 2 -49 1 -66
-5z"/>
<path d="M140 1944 c0 -129 -4 -223 -10 -235 -7 -12 -21 -19 -40 -19 -25 0
-30 -4 -30 -25 0 -21 5 -25 28 -25 42 0 75 22 94 60 15 30 18 65 18 248 l0
212 -30 0 -30 0 0 -216z"/>
<path d="M5940 2155 c0 -5 68 -281 91 -367 8 -33 14 -38 39 -38 18 0 33 7 38
18 5 9 26 88 47 175 21 87 39 156 40 155 2 -2 20 -73 40 -158 21 -85 42 -163
47 -172 13 -26 56 -23 68 5 5 12 28 96 50 187 23 91 43 173 46 183 4 13 -1 17
-23 17 l-29 0 -39 -160 c-22 -88 -42 -160 -45 -160 -3 0 -23 72 -45 160 l-39
160 -31 0 -31 0 -38 -157 c-21 -87 -41 -162 -44 -168 -3 -5 -24 65 -47 155
-40 160 -42 165 -68 168 -15 2 -27 1 -27 -3z"/>
<path d="M12092 2124 c-50 -35 -69 -133 -36 -195 29 -56 113 -75 173 -38 l33
20 -6 -28 c-13 -56 -29 -84 -57 -98 -32 -17 -77 -19 -113 -5 -24 9 -26 7 -26
-15 0 -19 7 -26 28 -31 15 -3 34 -8 42 -10 29 -7 93 15 121 42 46 44 62 100
57 197 -5 93 -28 144 -73 165 -37 17 -116 15 -143 -4z m127 -41 c27 -22 38
-83 21 -122 -16 -39 -60 -58 -99 -41 -81 33 -58 180 29 180 15 0 37 -8 49 -17z"/>
<path d="M730 2063 c-23 -9 -60 -45 -76 -75 -20 -38 -17 -87 6 -126 76 -125
260 -77 260 68 0 56 -27 101 -73 123 -34 17 -87 21 -117 10z"/>
<path d="M1210 1930 l0 -140 425 0 425 0 0 140 0 140 -425 0 -425 0 0 -140z"/>
<path d="M2350 1930 l0 -140 425 0 425 0 0 140 0 140 -425 0 -425 0 0 -140z"/>
<path d="M3480 1930 l0 -140 430 0 430 0 0 140 0 140 -430 0 -430 0 0 -140z"/>
<path d="M6635 2029 c-117 -103 -10 -289 139 -239 20 6 47 26 60 43 50 66 42
142 -20 197 -30 25 -43 30 -89 30 -46 0 -59 -4 -90 -31z"/>
<path d="M7150 1920 l0 -140 430 0 430 0 0 140 0 140 -430 0 -430 0 0 -140z"/>
<path d="M8290 1920 l0 -140 425 0 425 0 0 140 0 140 -425 0 -425 0 0 -140z"/>
<path d="M12552 1888 l3 -143 425 0 425 0 3 143 3 142 -431 0 -431 0 3 -142z"/>
<path d="M13690 1885 l0 -145 428 2 427 3 3 143 3 142 -431 0 -430 0 0 -145z"/>
<path d="M14830 1885 l0 -145 425 0 425 0 0 145 0 145 -425 0 -425 0 0 -145z"/>
<path d="M15970 1885 l0 -145 425 0 425 0 0 145 0 145 -425 0 -425 0 0 -145z"/>
<path d="M17185 2010 c-130 -64 -86 -263 58 -263 58 0 103 28 128 81 36 72 8
151 -65 186 -45 21 -72 20 -121 -4z"/>
<path d="M60 1390 l0 -200 30 0 30 0 0 97 0 98 98 -98 c86 -85 102 -97 132
-97 l35 0 -109 109 c-86 86 -105 111 -93 117 8 5 54 46 101 92 l86 82 -36 0
c-30 0 -46 -11 -124 -86 l-90 -87 0 87 0 86 -30 0 -30 0 0 -200z"/>
<path d="M6056 1563 c9 -16 37 -58 62 -95 l44 -66 -71 -106 -71 -106 29 0 c25
0 35 11 81 80 29 44 56 80 60 80 4 0 31 -36 60 -80 45 -69 56 -80 81 -80 l29
0 -66 100 c-38 57 -63 107 -60 115 3 8 27 48 54 87 69 104 67 98 35 98 -23 -1
-36 -13 -79 -76 l-51 -75 -49 76 c-42 64 -53 75 -78 75 l-28 0 18 -27z"/>
<path d="M640 1360 l0 -140 425 0 425 0 0 140 0 140 -425 0 -425 0 0 -140z"/>
<path d="M1846 1481 c-49 -32 -69 -75 -64 -132 10 -103 120 -161 206 -109 125
77 74 260 -73 260 -22 0 -53 -8 -69 -19z"/>
<path d="M2350 1360 l0 -140 425 0 425 0 0 140 0 140 -425 0 -425 0 0 -140z"/>
<path d="M6587 1493 c-4 -3 -7 -69 -7 -145 l0 -138 430 0 431 0 -3 143 -3 142
-421 3 c-231 1 -424 -1 -427 -5z"/>
<path d="M7835 1490 c-50 -11 -74 -29 -96 -72 -63 -123 59 -249 183 -189 55
26 78 64 78 130 0 44 -5 56 -32 87 -36 38 -84 54 -133 44z"/>
<path d="M8385 1485 c-73 -26 -109 -99 -86 -175 31 -103 160 -130 236 -50 22
23 29 41 32 82 8 109 -80 178 -182 143z"/>
<path d="M8860 1355 l0 -145 425 0 425 0 0 145 0 145 -425 0 -425 0 0 -145z"/>
<path d="M102 818 l3 -203 125 0 c122 0 125 1 128 23 3 22 1 22 -97 22 l-101
0 0 180 0 180 -30 0 -30 0 2 -202z"/>
<path d="M6069 916 l70 -104 3 -99 c3 -97 3 -98 28 -98 25 0 25 1 28 98 l3 99
70 104 69 104 -30 0 c-26 0 -36 -9 -82 -80 -29 -44 -55 -80 -58 -79 -3 0 -29
36 -59 79 -47 69 -58 80 -83 80 l-28 0 69 -104z"/>
<path d="M703 909 c-42 -27 -67 -81 -60 -131 10 -71 54 -116 126 -125 47 -6
109 24 134 67 21 35 22 102 2 141 -35 66 -136 90 -202 48z"/>
<path d="M1210 790 l0 -140 425 0 425 0 0 140 0 140 -425 0 -425 0 0 -140z"/>
<path d="M2413 910 c-60 -36 -82 -129 -46 -190 21 -36 81 -70 124 -70 69 0
139 70 139 138 0 111 -123 180 -217 122z"/>
<path d="M2983 910 c-89 -54 -82 -200 11 -244 85 -40 185 9 202 100 9 50 -3
83 -45 126 -34 34 -44 38 -87 38 -31 0 -61 -7 -81 -20z"/>
<path d="M6587 923 c-4 -3 -7 -69 -7 -145 l0 -138 430 0 431 0 -3 143 -3 142
-421 3 c-231 1 -424 -1 -427 -5z"/>
<path d="M7815 915 c-125 -44 -125 -213 0 -261 56 -21 107 -9 149 35 72 75 37
203 -63 231 -43 12 -37 12 -86 -5z"/>
<path d="M8290 785 l0 -145 425 0 425 0 0 145 0 145 -425 0 -425 0 0 -145z"/>
<path d="M9430 785 l0 -145 425 0 425 0 0 145 0 145 -425 0 -425 0 0 -145z"/>
<path d="M30 250 l0 -200 30 0 30 0 2 166 3 167 49 -132 c43 -114 52 -131 71
-131 31 0 36 8 86 145 l44 120 3 -167 2 -168 30 0 30 0 0 200 0 200 -43 0 -44
0 -49 -130 c-27 -72 -52 -130 -55 -130 -3 0 -28 59 -54 130 l-48 130 -43 0
-44 0 0 -200z"/>
<path d="M6040 425 l0 -25 120 0 c66 0 120 -2 120 -5 0 -3 -57 -76 -126 -161
-72 -90 -124 -163 -122 -172 3 -15 22 -17 168 -17 163 0 165 0 168 22 3 22 1
22 -128 25 l-132 3 126 157 c69 87 126 167 126 178 0 19 -6 20 -160 20 l-160
0 0 -25z"/>
<path d="M640 225 l0 -145 425 0 425 0 0 145 0 145 -425 0 -425 0 0 -145z"/>
<path d="M1780 225 l0 -145 425 0 425 0 0 145 0 145 -425 0 -425 0 0 -145z"/>
<path d="M6582 218 l3 -143 425 0 425 0 3 143 3 142 -431 0 -431 0 3 -142z"/>
<path d="M7720 215 l0 -145 425 0 425 0 0 145 0 145 -425 0 -425 0 0 -145z"/>
<path d="M8940 343 c-133 -69 -88 -267 61 -267 176 0 187 259 12 280 -25 3
-50 -1 -73 -13z"/>
<path d="M9510 343 c-99 -51 -107 -189 -14 -249 62 -41 164 -12 199 56 61 118
-69 253 -185 193z"/>
</g>
</svg>
